<mxfile host="app.diagrams.net" modified="2024-01-19T19:41:47.533Z" agent="Mozilla/5.0 (Macintosh; Intel Mac OS X 10_15_7) AppleWebKit/605.1.15 (KHTML, like Gecko) Version/17.2.1 Safari/605.1.15" etag="PSxkVYHgXOZAJ2buJ3VQ" version="22.1.21" type="device">
  <diagram id="kgpKYQtTHZ0yAKxKKP6v" name="Page-1">
    <mxGraphModel dx="474" dy="830" grid="1" gridSize="10" guides="1" tooltips="1" connect="1" arrows="1" fold="1" page="1" pageScale="1" pageWidth="850" pageHeight="1100" math="0" shadow="0">
      <root>
        <mxCell id="0" />
        <mxCell id="1" parent="0" />
        <mxCell id="Rd5KwKHS8q_VqUKi5bwp-195" value="" style="rounded=0;whiteSpace=wrap;html=1;fillColor=none;connectable=0;" vertex="1" parent="1">
          <mxGeometry x="40" y="40" width="1440" height="750" as="geometry" />
        </mxCell>
        <mxCell id="Rd5KwKHS8q_VqUKi5bwp-9" value="HR Team Members" style="rounded=0;whiteSpace=wrap;html=1;fillColor=none;" vertex="1" parent="1">
          <mxGeometry x="40" y="40" width="240" height="40" as="geometry" />
        </mxCell>
        <mxCell id="Rd5KwKHS8q_VqUKi5bwp-21" value="Applicant" style="rounded=0;whiteSpace=wrap;html=1;fillColor=none;" vertex="1" parent="1">
          <mxGeometry x="280" y="40" width="240" height="40" as="geometry" />
        </mxCell>
        <mxCell id="Rd5KwKHS8q_VqUKi5bwp-22" value="Recruiter" style="rounded=0;whiteSpace=wrap;html=1;fillColor=none;" vertex="1" parent="1">
          <mxGeometry x="520" y="40" width="240" height="40" as="geometry" />
        </mxCell>
        <mxCell id="Rd5KwKHS8q_VqUKi5bwp-23" value="Hiring Manager" style="rounded=0;whiteSpace=wrap;html=1;fillColor=none;" vertex="1" parent="1">
          <mxGeometry x="760" y="40" width="240" height="40" as="geometry" />
        </mxCell>
        <mxCell id="Rd5KwKHS8q_VqUKi5bwp-24" value="Facilities Manager" style="rounded=0;whiteSpace=wrap;html=1;fillColor=none;" vertex="1" parent="1">
          <mxGeometry x="1000" y="40" width="240" height="40" as="geometry" />
        </mxCell>
        <mxCell id="Rd5KwKHS8q_VqUKi5bwp-25" value="IT Specialists" style="rounded=0;whiteSpace=wrap;html=1;fillColor=none;" vertex="1" parent="1">
          <mxGeometry x="1240" y="40" width="240" height="40" as="geometry" />
        </mxCell>
        <mxCell id="Rd5KwKHS8q_VqUKi5bwp-28" style="edgeStyle=orthogonalEdgeStyle;rounded=0;orthogonalLoop=1;jettySize=auto;html=1;entryX=0.5;entryY=0;entryDx=0;entryDy=0;" edge="1" parent="1" source="Rd5KwKHS8q_VqUKi5bwp-26" target="Rd5KwKHS8q_VqUKi5bwp-27">
          <mxGeometry relative="1" as="geometry" />
        </mxCell>
        <mxCell id="Rd5KwKHS8q_VqUKi5bwp-26" value="" style="ellipse;whiteSpace=wrap;html=1;aspect=fixed;fillColor=#000000;" vertex="1" parent="1">
          <mxGeometry x="145" y="90" width="30" height="30" as="geometry" />
        </mxCell>
        <mxCell id="Rd5KwKHS8q_VqUKi5bwp-71" value="" style="edgeStyle=orthogonalEdgeStyle;rounded=0;orthogonalLoop=1;jettySize=auto;html=1;" edge="1" parent="1" source="Rd5KwKHS8q_VqUKi5bwp-27" target="Rd5KwKHS8q_VqUKi5bwp-68">
          <mxGeometry relative="1" as="geometry" />
        </mxCell>
        <mxCell id="Rd5KwKHS8q_VqUKi5bwp-27" value="Create a new job listing with details" style="rounded=0;whiteSpace=wrap;html=1;" vertex="1" parent="1">
          <mxGeometry x="110" y="150" width="100" height="50" as="geometry" />
        </mxCell>
        <mxCell id="Rd5KwKHS8q_VqUKi5bwp-185" value="" style="edgeStyle=orthogonalEdgeStyle;rounded=0;orthogonalLoop=1;jettySize=auto;html=1;" edge="1" parent="1" source="Rd5KwKHS8q_VqUKi5bwp-33" target="Rd5KwKHS8q_VqUKi5bwp-183">
          <mxGeometry relative="1" as="geometry" />
        </mxCell>
        <mxCell id="Rd5KwKHS8q_VqUKi5bwp-33" value="Listing is sent to Dataverse database" style="rounded=0;whiteSpace=wrap;html=1;" vertex="1" parent="1">
          <mxGeometry x="110" y="300" width="100" height="50" as="geometry" />
        </mxCell>
        <mxCell id="Rd5KwKHS8q_VqUKi5bwp-133" style="edgeStyle=orthogonalEdgeStyle;rounded=0;orthogonalLoop=1;jettySize=auto;html=1;exitX=0.5;exitY=1;exitDx=0;exitDy=0;entryX=0.25;entryY=0;entryDx=0;entryDy=0;" edge="1" parent="1" source="Rd5KwKHS8q_VqUKi5bwp-36" target="Rd5KwKHS8q_VqUKi5bwp-129">
          <mxGeometry relative="1" as="geometry" />
        </mxCell>
        <mxCell id="Rd5KwKHS8q_VqUKi5bwp-36" value="Listing is edited" style="rounded=0;whiteSpace=wrap;html=1;" vertex="1" parent="1">
          <mxGeometry x="50" y="550" width="100" height="50" as="geometry" />
        </mxCell>
        <mxCell id="Rd5KwKHS8q_VqUKi5bwp-42" value="Edit Listing" style="text;html=1;strokeColor=none;fillColor=none;align=center;verticalAlign=middle;whiteSpace=wrap;rounded=0;" vertex="1" parent="1">
          <mxGeometry x="45" y="500" width="60" height="30" as="geometry" />
        </mxCell>
        <mxCell id="Rd5KwKHS8q_VqUKi5bwp-134" style="edgeStyle=orthogonalEdgeStyle;rounded=0;orthogonalLoop=1;jettySize=auto;html=1;entryX=0.75;entryY=0;entryDx=0;entryDy=0;" edge="1" parent="1" source="Rd5KwKHS8q_VqUKi5bwp-44" target="Rd5KwKHS8q_VqUKi5bwp-129">
          <mxGeometry relative="1" as="geometry" />
        </mxCell>
        <mxCell id="Rd5KwKHS8q_VqUKi5bwp-44" value="Listing is deleted" style="rounded=0;whiteSpace=wrap;html=1;" vertex="1" parent="1">
          <mxGeometry x="165" y="550" width="100" height="50" as="geometry" />
        </mxCell>
        <mxCell id="Rd5KwKHS8q_VqUKi5bwp-46" value="Delete Listing" style="text;html=1;strokeColor=none;fillColor=none;align=center;verticalAlign=middle;whiteSpace=wrap;rounded=0;" vertex="1" parent="1">
          <mxGeometry x="215" y="500" width="60" height="30" as="geometry" />
        </mxCell>
        <mxCell id="Rd5KwKHS8q_VqUKi5bwp-47" value="" style="endArrow=none;html=1;rounded=0;" edge="1" parent="1">
          <mxGeometry width="50" height="50" relative="1" as="geometry">
            <mxPoint x="280" y="790" as="sourcePoint" />
            <mxPoint x="280" y="80" as="targetPoint" />
          </mxGeometry>
        </mxCell>
        <mxCell id="Rd5KwKHS8q_VqUKi5bwp-58" value="" style="edgeStyle=orthogonalEdgeStyle;rounded=0;orthogonalLoop=1;jettySize=auto;html=1;" edge="1" parent="1" source="Rd5KwKHS8q_VqUKi5bwp-55" target="Rd5KwKHS8q_VqUKi5bwp-57">
          <mxGeometry relative="1" as="geometry" />
        </mxCell>
        <mxCell id="Rd5KwKHS8q_VqUKi5bwp-55" value="Applicant views external facing Power Pages Site" style="rounded=0;whiteSpace=wrap;html=1;" vertex="1" parent="1">
          <mxGeometry x="350" y="120" width="100" height="50" as="geometry" />
        </mxCell>
        <mxCell id="Rd5KwKHS8q_VqUKi5bwp-61" value="" style="edgeStyle=orthogonalEdgeStyle;rounded=0;orthogonalLoop=1;jettySize=auto;html=1;" edge="1" parent="1" source="Rd5KwKHS8q_VqUKi5bwp-57" target="Rd5KwKHS8q_VqUKi5bwp-59">
          <mxGeometry relative="1" as="geometry" />
        </mxCell>
        <mxCell id="Rd5KwKHS8q_VqUKi5bwp-57" value="Applicant views job listing" style="rounded=0;whiteSpace=wrap;html=1;" vertex="1" parent="1">
          <mxGeometry x="350" y="200" width="100" height="50" as="geometry" />
        </mxCell>
        <mxCell id="Rd5KwKHS8q_VqUKi5bwp-170" value="" style="edgeStyle=orthogonalEdgeStyle;rounded=0;orthogonalLoop=1;jettySize=auto;html=1;" edge="1" parent="1" source="Rd5KwKHS8q_VqUKi5bwp-59" target="Rd5KwKHS8q_VqUKi5bwp-72">
          <mxGeometry relative="1" as="geometry" />
        </mxCell>
        <mxCell id="Rd5KwKHS8q_VqUKi5bwp-59" value="&lt;font style=&quot;font-size: 11px;&quot;&gt;Applicant applies to job and fills out required information&lt;/font&gt;" style="rounded=0;whiteSpace=wrap;html=1;" vertex="1" parent="1">
          <mxGeometry x="350" y="280" width="100" height="50" as="geometry" />
        </mxCell>
        <mxCell id="Rd5KwKHS8q_VqUKi5bwp-64" style="edgeStyle=orthogonalEdgeStyle;rounded=0;orthogonalLoop=1;jettySize=auto;html=1;exitX=0;exitY=0.5;exitDx=0;exitDy=0;entryX=0.5;entryY=0;entryDx=0;entryDy=0;" edge="1" parent="1" source="Rd5KwKHS8q_VqUKi5bwp-62" target="Rd5KwKHS8q_VqUKi5bwp-36">
          <mxGeometry relative="1" as="geometry" />
        </mxCell>
        <mxCell id="Rd5KwKHS8q_VqUKi5bwp-65" style="edgeStyle=orthogonalEdgeStyle;rounded=0;orthogonalLoop=1;jettySize=auto;html=1;exitX=1;exitY=0.5;exitDx=0;exitDy=0;entryX=0.5;entryY=0;entryDx=0;entryDy=0;" edge="1" parent="1" source="Rd5KwKHS8q_VqUKi5bwp-62" target="Rd5KwKHS8q_VqUKi5bwp-44">
          <mxGeometry relative="1" as="geometry" />
        </mxCell>
        <mxCell id="Rd5KwKHS8q_VqUKi5bwp-62" value="" style="rhombus;whiteSpace=wrap;html=1;fillColor=#000000;" vertex="1" parent="1">
          <mxGeometry x="150" y="490" width="20" height="20" as="geometry" />
        </mxCell>
        <mxCell id="Rd5KwKHS8q_VqUKi5bwp-68" value="Job Listing" style="shape=document;whiteSpace=wrap;html=1;boundedLbl=1;" vertex="1" parent="1">
          <mxGeometry x="110" y="230" width="100" height="50" as="geometry" />
        </mxCell>
        <mxCell id="Rd5KwKHS8q_VqUKi5bwp-70" value="" style="endArrow=classic;html=1;rounded=0;exitX=0.5;exitY=0.848;exitDx=0;exitDy=0;exitPerimeter=0;entryX=0.5;entryY=0;entryDx=0;entryDy=0;" edge="1" parent="1" source="Rd5KwKHS8q_VqUKi5bwp-68" target="Rd5KwKHS8q_VqUKi5bwp-33">
          <mxGeometry width="50" height="50" relative="1" as="geometry">
            <mxPoint x="190" y="290" as="sourcePoint" />
            <mxPoint x="240" y="240" as="targetPoint" />
          </mxGeometry>
        </mxCell>
        <mxCell id="Rd5KwKHS8q_VqUKi5bwp-171" style="edgeStyle=orthogonalEdgeStyle;rounded=0;orthogonalLoop=1;jettySize=auto;html=1;exitX=1;exitY=0.5;exitDx=0;exitDy=0;entryX=0;entryY=0.5;entryDx=0;entryDy=0;" edge="1" parent="1" source="Rd5KwKHS8q_VqUKi5bwp-72" target="Rd5KwKHS8q_VqUKi5bwp-74">
          <mxGeometry relative="1" as="geometry">
            <Array as="points">
              <mxPoint x="530" y="395" />
              <mxPoint x="530" y="135" />
            </Array>
          </mxGeometry>
        </mxCell>
        <mxCell id="Rd5KwKHS8q_VqUKi5bwp-72" value="&lt;font style=&quot;font-size: 11px;&quot;&gt;Application is sent to Dataverse&lt;/font&gt;" style="rounded=0;whiteSpace=wrap;html=1;" vertex="1" parent="1">
          <mxGeometry x="350" y="370" width="100" height="50" as="geometry" />
        </mxCell>
        <mxCell id="Rd5KwKHS8q_VqUKi5bwp-197" style="edgeStyle=orthogonalEdgeStyle;rounded=0;orthogonalLoop=1;jettySize=auto;html=1;exitX=0.5;exitY=1;exitDx=0;exitDy=0;entryX=0.5;entryY=0;entryDx=0;entryDy=0;" edge="1" parent="1" source="Rd5KwKHS8q_VqUKi5bwp-74" target="Rd5KwKHS8q_VqUKi5bwp-76">
          <mxGeometry relative="1" as="geometry" />
        </mxCell>
        <mxCell id="Rd5KwKHS8q_VqUKi5bwp-74" value="&lt;span style=&quot;font-size: 11px;&quot;&gt;Recruiter is notified of new application&lt;/span&gt;" style="rounded=0;whiteSpace=wrap;html=1;" vertex="1" parent="1">
          <mxGeometry x="590" y="110" width="100" height="50" as="geometry" />
        </mxCell>
        <mxCell id="Rd5KwKHS8q_VqUKi5bwp-76" value="&lt;span style=&quot;font-size: 11px;&quot;&gt;Reviews job application&lt;/span&gt;" style="rounded=0;whiteSpace=wrap;html=1;" vertex="1" parent="1">
          <mxGeometry x="590" y="190" width="100" height="50" as="geometry" />
        </mxCell>
        <mxCell id="Rd5KwKHS8q_VqUKi5bwp-78" value="" style="endArrow=none;html=1;rounded=0;" edge="1" parent="1">
          <mxGeometry width="50" height="50" relative="1" as="geometry">
            <mxPoint x="520" y="790" as="sourcePoint" />
            <mxPoint x="520" y="70" as="targetPoint" />
          </mxGeometry>
        </mxCell>
        <mxCell id="Rd5KwKHS8q_VqUKi5bwp-88" style="edgeStyle=orthogonalEdgeStyle;rounded=0;orthogonalLoop=1;jettySize=auto;html=1;exitX=1;exitY=0.5;exitDx=0;exitDy=0;entryX=0.5;entryY=0;entryDx=0;entryDy=0;" edge="1" parent="1" source="Rd5KwKHS8q_VqUKi5bwp-79" target="Rd5KwKHS8q_VqUKi5bwp-89">
          <mxGeometry relative="1" as="geometry">
            <mxPoint x="700" y="370" as="targetPoint" />
          </mxGeometry>
        </mxCell>
        <mxCell id="Rd5KwKHS8q_VqUKi5bwp-94" style="edgeStyle=orthogonalEdgeStyle;rounded=0;orthogonalLoop=1;jettySize=auto;html=1;exitX=0;exitY=0.5;exitDx=0;exitDy=0;entryX=0.5;entryY=0;entryDx=0;entryDy=0;" edge="1" parent="1" source="Rd5KwKHS8q_VqUKi5bwp-79" target="Rd5KwKHS8q_VqUKi5bwp-93">
          <mxGeometry relative="1" as="geometry" />
        </mxCell>
        <mxCell id="Rd5KwKHS8q_VqUKi5bwp-79" value="" style="rhombus;whiteSpace=wrap;html=1;fillColor=#000000;" vertex="1" parent="1">
          <mxGeometry x="630" y="270" width="20" height="20" as="geometry" />
        </mxCell>
        <mxCell id="Rd5KwKHS8q_VqUKi5bwp-80" value="" style="endArrow=classic;html=1;rounded=0;exitX=0.5;exitY=1;exitDx=0;exitDy=0;entryX=0.5;entryY=0;entryDx=0;entryDy=0;" edge="1" parent="1" source="Rd5KwKHS8q_VqUKi5bwp-76" target="Rd5KwKHS8q_VqUKi5bwp-79">
          <mxGeometry width="50" height="50" relative="1" as="geometry">
            <mxPoint x="590" y="350" as="sourcePoint" />
            <mxPoint x="640" y="260" as="targetPoint" />
          </mxGeometry>
        </mxCell>
        <mxCell id="Rd5KwKHS8q_VqUKi5bwp-81" value="Approved" style="text;html=1;strokeColor=none;fillColor=none;align=center;verticalAlign=middle;whiteSpace=wrap;rounded=0;" vertex="1" parent="1">
          <mxGeometry x="660" y="250" width="60" height="30" as="geometry" />
        </mxCell>
        <mxCell id="Rd5KwKHS8q_VqUKi5bwp-82" value="Rejected" style="text;html=1;strokeColor=none;fillColor=none;align=center;verticalAlign=middle;whiteSpace=wrap;rounded=0;" vertex="1" parent="1">
          <mxGeometry x="560" y="250" width="60" height="30" as="geometry" />
        </mxCell>
        <mxCell id="Rd5KwKHS8q_VqUKi5bwp-140" style="edgeStyle=orthogonalEdgeStyle;rounded=0;orthogonalLoop=1;jettySize=auto;html=1;exitX=0.5;exitY=1;exitDx=0;exitDy=0;entryX=0.5;entryY=0;entryDx=0;entryDy=0;" edge="1" parent="1" source="Rd5KwKHS8q_VqUKi5bwp-83" target="Rd5KwKHS8q_VqUKi5bwp-139">
          <mxGeometry relative="1" as="geometry" />
        </mxCell>
        <mxCell id="Rd5KwKHS8q_VqUKi5bwp-83" value="&lt;span style=&quot;font-size: 11px;&quot;&gt;Applicant is notified of rejection&lt;/span&gt;" style="rounded=0;whiteSpace=wrap;html=1;" vertex="1" parent="1">
          <mxGeometry x="540" y="380" width="100" height="50" as="geometry" />
        </mxCell>
        <mxCell id="Rd5KwKHS8q_VqUKi5bwp-97" value="" style="edgeStyle=orthogonalEdgeStyle;rounded=0;orthogonalLoop=1;jettySize=auto;html=1;" edge="1" parent="1" source="Rd5KwKHS8q_VqUKi5bwp-89" target="Rd5KwKHS8q_VqUKi5bwp-96">
          <mxGeometry relative="1" as="geometry" />
        </mxCell>
        <mxCell id="Rd5KwKHS8q_VqUKi5bwp-89" value="&lt;span style=&quot;font-size: 11px;&quot;&gt;Interview is scheduled&lt;/span&gt;" style="rounded=0;whiteSpace=wrap;html=1;" vertex="1" parent="1">
          <mxGeometry x="650" y="370" width="100" height="50" as="geometry" />
        </mxCell>
        <mxCell id="Rd5KwKHS8q_VqUKi5bwp-196" style="edgeStyle=orthogonalEdgeStyle;rounded=0;orthogonalLoop=1;jettySize=auto;html=1;exitX=1;exitY=0.5;exitDx=0;exitDy=0;entryX=0;entryY=0.5;entryDx=0;entryDy=0;" edge="1" parent="1" source="Rd5KwKHS8q_VqUKi5bwp-90" target="Rd5KwKHS8q_VqUKi5bwp-103">
          <mxGeometry relative="1" as="geometry">
            <Array as="points">
              <mxPoint x="770" y="555" />
              <mxPoint x="770" y="135" />
            </Array>
          </mxGeometry>
        </mxCell>
        <mxCell id="Rd5KwKHS8q_VqUKi5bwp-90" value="&lt;span style=&quot;font-size: 11px;&quot;&gt;Applicant is notified of upcoming interview&lt;/span&gt;" style="rounded=0;whiteSpace=wrap;html=1;" vertex="1" parent="1">
          <mxGeometry x="650" y="530" width="100" height="50" as="geometry" />
        </mxCell>
        <mxCell id="Rd5KwKHS8q_VqUKi5bwp-92" value="" style="endArrow=none;html=1;rounded=0;" edge="1" parent="1">
          <mxGeometry width="50" height="50" relative="1" as="geometry">
            <mxPoint x="760" y="790" as="sourcePoint" />
            <mxPoint x="760" y="70" as="targetPoint" />
          </mxGeometry>
        </mxCell>
        <mxCell id="Rd5KwKHS8q_VqUKi5bwp-93" value="Rejection Email" style="shape=document;whiteSpace=wrap;html=1;boundedLbl=1;" vertex="1" parent="1">
          <mxGeometry x="540" y="310" width="100" height="50" as="geometry" />
        </mxCell>
        <mxCell id="Rd5KwKHS8q_VqUKi5bwp-95" value="" style="endArrow=classic;html=1;rounded=0;exitX=0.503;exitY=0.833;exitDx=0;exitDy=0;exitPerimeter=0;entryX=0.5;entryY=0;entryDx=0;entryDy=0;" edge="1" parent="1" source="Rd5KwKHS8q_VqUKi5bwp-93" target="Rd5KwKHS8q_VqUKi5bwp-83">
          <mxGeometry width="50" height="50" relative="1" as="geometry">
            <mxPoint x="610" y="390" as="sourcePoint" />
            <mxPoint x="660" y="340" as="targetPoint" />
          </mxGeometry>
        </mxCell>
        <mxCell id="Rd5KwKHS8q_VqUKi5bwp-96" value="Scheduled Interview Email" style="shape=document;whiteSpace=wrap;html=1;boundedLbl=1;" vertex="1" parent="1">
          <mxGeometry x="650" y="450" width="100" height="50" as="geometry" />
        </mxCell>
        <mxCell id="Rd5KwKHS8q_VqUKi5bwp-98" value="" style="endArrow=classic;html=1;rounded=0;exitX=0.503;exitY=0.862;exitDx=0;exitDy=0;exitPerimeter=0;entryX=0.5;entryY=0;entryDx=0;entryDy=0;" edge="1" parent="1" source="Rd5KwKHS8q_VqUKi5bwp-96" target="Rd5KwKHS8q_VqUKi5bwp-90">
          <mxGeometry width="50" height="50" relative="1" as="geometry">
            <mxPoint x="610" y="550" as="sourcePoint" />
            <mxPoint x="660" y="500" as="targetPoint" />
          </mxGeometry>
        </mxCell>
        <mxCell id="Rd5KwKHS8q_VqUKi5bwp-172" value="" style="edgeStyle=orthogonalEdgeStyle;rounded=0;orthogonalLoop=1;jettySize=auto;html=1;" edge="1" parent="1" source="Rd5KwKHS8q_VqUKi5bwp-103" target="Rd5KwKHS8q_VqUKi5bwp-110">
          <mxGeometry relative="1" as="geometry" />
        </mxCell>
        <mxCell id="Rd5KwKHS8q_VqUKi5bwp-103" value="&lt;span style=&quot;font-size: 11px;&quot;&gt;Hiring Manager is notified of upcoming interview&lt;/span&gt;" style="rounded=0;whiteSpace=wrap;html=1;" vertex="1" parent="1">
          <mxGeometry x="830" y="110" width="100" height="50" as="geometry" />
        </mxCell>
        <mxCell id="Rd5KwKHS8q_VqUKi5bwp-111" value="" style="edgeStyle=orthogonalEdgeStyle;rounded=0;orthogonalLoop=1;jettySize=auto;html=1;" edge="1" parent="1" source="Rd5KwKHS8q_VqUKi5bwp-106" target="Rd5KwKHS8q_VqUKi5bwp-110">
          <mxGeometry relative="1" as="geometry" />
        </mxCell>
        <mxCell id="Rd5KwKHS8q_VqUKi5bwp-106" value="&lt;span style=&quot;font-size: 11px;&quot;&gt;Interview is conducted&lt;/span&gt;" style="rounded=0;whiteSpace=wrap;html=1;" vertex="1" parent="1">
          <mxGeometry x="830" y="190" width="100" height="50" as="geometry" />
        </mxCell>
        <mxCell id="Rd5KwKHS8q_VqUKi5bwp-116" value="" style="edgeStyle=orthogonalEdgeStyle;rounded=0;orthogonalLoop=1;jettySize=auto;html=1;" edge="1" parent="1" source="Rd5KwKHS8q_VqUKi5bwp-108" target="Rd5KwKHS8q_VqUKi5bwp-115">
          <mxGeometry relative="1" as="geometry" />
        </mxCell>
        <mxCell id="Rd5KwKHS8q_VqUKi5bwp-108" value="&lt;font style=&quot;font-size: 10px;&quot;&gt;Interview results are recorded in Dataverse&lt;br&gt;&lt;/font&gt;" style="rounded=0;whiteSpace=wrap;html=1;" vertex="1" parent="1">
          <mxGeometry x="830" y="340" width="100" height="50" as="geometry" />
        </mxCell>
        <mxCell id="Rd5KwKHS8q_VqUKi5bwp-110" value="Interview Results" style="shape=document;whiteSpace=wrap;html=1;boundedLbl=1;" vertex="1" parent="1">
          <mxGeometry x="830" y="270" width="100" height="50" as="geometry" />
        </mxCell>
        <mxCell id="Rd5KwKHS8q_VqUKi5bwp-112" value="" style="endArrow=classic;html=1;rounded=0;exitX=0.493;exitY=0.853;exitDx=0;exitDy=0;exitPerimeter=0;entryX=0.5;entryY=0;entryDx=0;entryDy=0;" edge="1" parent="1" source="Rd5KwKHS8q_VqUKi5bwp-110" target="Rd5KwKHS8q_VqUKi5bwp-108">
          <mxGeometry width="50" height="50" relative="1" as="geometry">
            <mxPoint x="950" y="340" as="sourcePoint" />
            <mxPoint x="1000" y="290" as="targetPoint" />
          </mxGeometry>
        </mxCell>
        <mxCell id="Rd5KwKHS8q_VqUKi5bwp-118" style="edgeStyle=orthogonalEdgeStyle;rounded=0;orthogonalLoop=1;jettySize=auto;html=1;exitX=0;exitY=0.5;exitDx=0;exitDy=0;entryX=0.5;entryY=0;entryDx=0;entryDy=0;" edge="1" parent="1" source="Rd5KwKHS8q_VqUKi5bwp-115" target="Rd5KwKHS8q_VqUKi5bwp-119">
          <mxGeometry relative="1" as="geometry">
            <mxPoint x="830" y="480" as="targetPoint" />
          </mxGeometry>
        </mxCell>
        <mxCell id="Rd5KwKHS8q_VqUKi5bwp-128" style="edgeStyle=orthogonalEdgeStyle;rounded=0;orthogonalLoop=1;jettySize=auto;html=1;exitX=1;exitY=0.5;exitDx=0;exitDy=0;entryX=0.5;entryY=0;entryDx=0;entryDy=0;" edge="1" parent="1" source="Rd5KwKHS8q_VqUKi5bwp-115" target="Rd5KwKHS8q_VqUKi5bwp-127">
          <mxGeometry relative="1" as="geometry" />
        </mxCell>
        <mxCell id="Rd5KwKHS8q_VqUKi5bwp-115" value="" style="rhombus;whiteSpace=wrap;html=1;fillColor=#000000;" vertex="1" parent="1">
          <mxGeometry x="870" y="420" width="20" height="20" as="geometry" />
        </mxCell>
        <mxCell id="Rd5KwKHS8q_VqUKi5bwp-119" value="Rejection Email" style="shape=document;whiteSpace=wrap;html=1;boundedLbl=1;" vertex="1" parent="1">
          <mxGeometry x="780" y="460" width="100" height="50" as="geometry" />
        </mxCell>
        <mxCell id="Rd5KwKHS8q_VqUKi5bwp-142" style="edgeStyle=orthogonalEdgeStyle;rounded=0;orthogonalLoop=1;jettySize=auto;html=1;exitX=0.5;exitY=1;exitDx=0;exitDy=0;entryX=0.5;entryY=0;entryDx=0;entryDy=0;" edge="1" parent="1" source="Rd5KwKHS8q_VqUKi5bwp-121" target="Rd5KwKHS8q_VqUKi5bwp-141">
          <mxGeometry relative="1" as="geometry" />
        </mxCell>
        <mxCell id="Rd5KwKHS8q_VqUKi5bwp-121" value="&lt;span style=&quot;font-size: 11px;&quot;&gt;Applicant is notified of rejection&lt;/span&gt;" style="rounded=0;whiteSpace=wrap;html=1;" vertex="1" parent="1">
          <mxGeometry x="780" y="530" width="100" height="50" as="geometry" />
        </mxCell>
        <mxCell id="Rd5KwKHS8q_VqUKi5bwp-122" value="" style="endArrow=classic;html=1;rounded=0;entryX=0.5;entryY=0;entryDx=0;entryDy=0;" edge="1" parent="1" target="Rd5KwKHS8q_VqUKi5bwp-121">
          <mxGeometry width="50" height="50" relative="1" as="geometry">
            <mxPoint x="830" y="502" as="sourcePoint" />
            <mxPoint x="890" y="500" as="targetPoint" />
          </mxGeometry>
        </mxCell>
        <mxCell id="Rd5KwKHS8q_VqUKi5bwp-123" value="Rejected" style="text;html=1;strokeColor=none;fillColor=none;align=center;verticalAlign=middle;whiteSpace=wrap;rounded=0;" vertex="1" parent="1">
          <mxGeometry x="780" y="400" width="60" height="30" as="geometry" />
        </mxCell>
        <mxCell id="Rd5KwKHS8q_VqUKi5bwp-146" style="edgeStyle=orthogonalEdgeStyle;rounded=0;orthogonalLoop=1;jettySize=auto;html=1;exitX=1;exitY=0.5;exitDx=0;exitDy=0;entryX=0;entryY=0.5;entryDx=0;entryDy=0;" edge="1" parent="1" source="Rd5KwKHS8q_VqUKi5bwp-124" target="Rd5KwKHS8q_VqUKi5bwp-145">
          <mxGeometry relative="1" as="geometry">
            <mxPoint x="1040" y="120" as="targetPoint" />
            <Array as="points">
              <mxPoint x="1010" y="685" />
              <mxPoint x="1010" y="135" />
            </Array>
          </mxGeometry>
        </mxCell>
        <mxCell id="Rd5KwKHS8q_VqUKi5bwp-124" value="&lt;span style=&quot;font-size: 11px;&quot;&gt;Applicant notified of successful interview&lt;/span&gt;" style="rounded=0;whiteSpace=wrap;html=1;" vertex="1" parent="1">
          <mxGeometry x="880" y="660" width="100" height="50" as="geometry" />
        </mxCell>
        <mxCell id="Rd5KwKHS8q_VqUKi5bwp-126" value="Approved" style="text;html=1;strokeColor=none;fillColor=none;align=center;verticalAlign=middle;whiteSpace=wrap;rounded=0;" vertex="1" parent="1">
          <mxGeometry x="910" y="400" width="60" height="30" as="geometry" />
        </mxCell>
        <mxCell id="Rd5KwKHS8q_VqUKi5bwp-127" value="Hiring Email" style="shape=document;whiteSpace=wrap;html=1;boundedLbl=1;" vertex="1" parent="1">
          <mxGeometry x="880" y="590" width="100" height="50" as="geometry" />
        </mxCell>
        <mxCell id="Rd5KwKHS8q_VqUKi5bwp-129" value="Updated Job Listing" style="shape=document;whiteSpace=wrap;html=1;boundedLbl=1;" vertex="1" parent="1">
          <mxGeometry x="105" y="640" width="100" height="50" as="geometry" />
        </mxCell>
        <mxCell id="Rd5KwKHS8q_VqUKi5bwp-194" style="edgeStyle=orthogonalEdgeStyle;rounded=0;orthogonalLoop=1;jettySize=auto;html=1;exitX=1;exitY=0.5;exitDx=0;exitDy=0;entryX=0;entryY=0.75;entryDx=0;entryDy=0;" edge="1" parent="1" source="Rd5KwKHS8q_VqUKi5bwp-130" target="Rd5KwKHS8q_VqUKi5bwp-55">
          <mxGeometry relative="1" as="geometry">
            <Array as="points">
              <mxPoint x="310" y="735" />
              <mxPoint x="310" y="158" />
            </Array>
          </mxGeometry>
        </mxCell>
        <mxCell id="Rd5KwKHS8q_VqUKi5bwp-130" value="Listing is updated on external Power Pages site" style="rounded=0;whiteSpace=wrap;html=1;" vertex="1" parent="1">
          <mxGeometry x="105" y="710" width="100" height="50" as="geometry" />
        </mxCell>
        <mxCell id="Rd5KwKHS8q_VqUKi5bwp-135" value="" style="endArrow=classic;html=1;rounded=0;exitX=0.503;exitY=0.843;exitDx=0;exitDy=0;exitPerimeter=0;entryX=0.5;entryY=0;entryDx=0;entryDy=0;" edge="1" parent="1" source="Rd5KwKHS8q_VqUKi5bwp-129" target="Rd5KwKHS8q_VqUKi5bwp-130">
          <mxGeometry width="50" height="50" relative="1" as="geometry">
            <mxPoint x="155" y="720" as="sourcePoint" />
            <mxPoint x="205" y="670" as="targetPoint" />
          </mxGeometry>
        </mxCell>
        <mxCell id="Rd5KwKHS8q_VqUKi5bwp-137" value="" style="endArrow=classic;html=1;rounded=0;exitX=0.498;exitY=0.851;exitDx=0;exitDy=0;exitPerimeter=0;entryX=0.5;entryY=0;entryDx=0;entryDy=0;" edge="1" parent="1" source="Rd5KwKHS8q_VqUKi5bwp-127" target="Rd5KwKHS8q_VqUKi5bwp-124">
          <mxGeometry width="50" height="50" relative="1" as="geometry">
            <mxPoint x="1040" y="620" as="sourcePoint" />
            <mxPoint x="1090" y="570" as="targetPoint" />
          </mxGeometry>
        </mxCell>
        <mxCell id="Rd5KwKHS8q_VqUKi5bwp-138" value="" style="endArrow=none;html=1;rounded=0;" edge="1" parent="1">
          <mxGeometry width="50" height="50" relative="1" as="geometry">
            <mxPoint x="1000" y="790" as="sourcePoint" />
            <mxPoint x="1000" y="70" as="targetPoint" />
          </mxGeometry>
        </mxCell>
        <mxCell id="Rd5KwKHS8q_VqUKi5bwp-139" value="" style="rounded=0;whiteSpace=wrap;html=1;fillColor=#000000;" vertex="1" parent="1">
          <mxGeometry x="560" y="455" width="60" height="10" as="geometry" />
        </mxCell>
        <mxCell id="Rd5KwKHS8q_VqUKi5bwp-141" value="" style="rounded=0;whiteSpace=wrap;html=1;fillColor=#000000;" vertex="1" parent="1">
          <mxGeometry x="800" y="610" width="60" height="10" as="geometry" />
        </mxCell>
        <mxCell id="Rd5KwKHS8q_VqUKi5bwp-149" value="" style="edgeStyle=orthogonalEdgeStyle;rounded=0;orthogonalLoop=1;jettySize=auto;html=1;" edge="1" parent="1" source="Rd5KwKHS8q_VqUKi5bwp-145" target="Rd5KwKHS8q_VqUKi5bwp-148">
          <mxGeometry relative="1" as="geometry" />
        </mxCell>
        <mxCell id="Rd5KwKHS8q_VqUKi5bwp-145" value="Deployment Request is sent" style="rounded=0;whiteSpace=wrap;html=1;" vertex="1" parent="1">
          <mxGeometry x="1070" y="110" width="100" height="50" as="geometry" />
        </mxCell>
        <mxCell id="Rd5KwKHS8q_VqUKi5bwp-154" style="edgeStyle=orthogonalEdgeStyle;rounded=0;orthogonalLoop=1;jettySize=auto;html=1;exitX=1;exitY=0.5;exitDx=0;exitDy=0;entryX=0;entryY=0.5;entryDx=0;entryDy=0;" edge="1" parent="1" source="Rd5KwKHS8q_VqUKi5bwp-148" target="Rd5KwKHS8q_VqUKi5bwp-153">
          <mxGeometry relative="1" as="geometry">
            <Array as="points">
              <mxPoint x="1250" y="225" />
              <mxPoint x="1250" y="145" />
            </Array>
          </mxGeometry>
        </mxCell>
        <mxCell id="Rd5KwKHS8q_VqUKi5bwp-148" value="&lt;font style=&quot;font-size: 11px;&quot;&gt;Applicant is assigned a deployment location&lt;/font&gt;" style="rounded=0;whiteSpace=wrap;html=1;" vertex="1" parent="1">
          <mxGeometry x="1070" y="190" width="100" height="50" as="geometry" />
        </mxCell>
        <mxCell id="Rd5KwKHS8q_VqUKi5bwp-152" value="" style="endArrow=none;html=1;rounded=0;" edge="1" parent="1">
          <mxGeometry width="50" height="50" relative="1" as="geometry">
            <mxPoint x="1240" y="790" as="sourcePoint" />
            <mxPoint x="1240" y="70" as="targetPoint" />
          </mxGeometry>
        </mxCell>
        <mxCell id="Rd5KwKHS8q_VqUKi5bwp-156" value="" style="edgeStyle=orthogonalEdgeStyle;rounded=0;orthogonalLoop=1;jettySize=auto;html=1;" edge="1" parent="1" source="Rd5KwKHS8q_VqUKi5bwp-153" target="Rd5KwKHS8q_VqUKi5bwp-155">
          <mxGeometry relative="1" as="geometry" />
        </mxCell>
        <mxCell id="Rd5KwKHS8q_VqUKi5bwp-153" value="Equipment Request is sent" style="rounded=0;whiteSpace=wrap;html=1;" vertex="1" parent="1">
          <mxGeometry x="1310" y="120" width="100" height="50" as="geometry" />
        </mxCell>
        <mxCell id="Rd5KwKHS8q_VqUKi5bwp-160" value="" style="edgeStyle=orthogonalEdgeStyle;rounded=0;orthogonalLoop=1;jettySize=auto;html=1;" edge="1" parent="1" source="Rd5KwKHS8q_VqUKi5bwp-155">
          <mxGeometry relative="1" as="geometry">
            <mxPoint x="1360.0285714285715" y="280" as="targetPoint" />
          </mxGeometry>
        </mxCell>
        <mxCell id="Rd5KwKHS8q_VqUKi5bwp-155" value="&lt;font style=&quot;font-size: 10px;&quot;&gt;Equipment is ordered from inventory &amp;amp; assigned to applicant&lt;/font&gt;" style="rounded=0;whiteSpace=wrap;html=1;" vertex="1" parent="1">
          <mxGeometry x="1310" y="200" width="100" height="50" as="geometry" />
        </mxCell>
        <mxCell id="Rd5KwKHS8q_VqUKi5bwp-161" value="Job Detail Email" style="shape=document;whiteSpace=wrap;html=1;boundedLbl=1;connectable=1;" vertex="1" parent="1">
          <mxGeometry x="1310" y="280" width="100" height="50" as="geometry" />
        </mxCell>
        <mxCell id="Rd5KwKHS8q_VqUKi5bwp-169" value="" style="edgeStyle=orthogonalEdgeStyle;rounded=0;orthogonalLoop=1;jettySize=auto;html=1;" edge="1" parent="1" source="Rd5KwKHS8q_VqUKi5bwp-164" target="Rd5KwKHS8q_VqUKi5bwp-168">
          <mxGeometry relative="1" as="geometry" />
        </mxCell>
        <mxCell id="Rd5KwKHS8q_VqUKi5bwp-164" value="&lt;font style=&quot;font-size: 10px;&quot;&gt;Applicant is notified of start date, location, and equipment&lt;/font&gt;" style="rounded=0;whiteSpace=wrap;html=1;" vertex="1" parent="1">
          <mxGeometry x="1310" y="360" width="100" height="50" as="geometry" />
        </mxCell>
        <mxCell id="Rd5KwKHS8q_VqUKi5bwp-167" value="" style="endArrow=classic;html=1;rounded=0;exitX=0.498;exitY=0.856;exitDx=0;exitDy=0;exitPerimeter=0;entryX=0.5;entryY=0;entryDx=0;entryDy=0;" edge="1" parent="1" source="Rd5KwKHS8q_VqUKi5bwp-161" target="Rd5KwKHS8q_VqUKi5bwp-164">
          <mxGeometry width="50" height="50" relative="1" as="geometry">
            <mxPoint x="1370" y="440" as="sourcePoint" />
            <mxPoint x="1420" y="390" as="targetPoint" />
          </mxGeometry>
        </mxCell>
        <mxCell id="Rd5KwKHS8q_VqUKi5bwp-168" value="" style="ellipse;whiteSpace=wrap;html=1;aspect=fixed;fillColor=#000000;" vertex="1" parent="1">
          <mxGeometry x="1345" y="440" width="30" height="30" as="geometry" />
        </mxCell>
        <mxCell id="Rd5KwKHS8q_VqUKi5bwp-176" value="Needs to be updated" style="text;html=1;strokeColor=none;fillColor=none;align=center;verticalAlign=middle;whiteSpace=wrap;rounded=0;" vertex="1" parent="1">
          <mxGeometry x="75" y="465" width="75" height="30" as="geometry" />
        </mxCell>
        <mxCell id="Rd5KwKHS8q_VqUKi5bwp-189" style="edgeStyle=orthogonalEdgeStyle;rounded=0;orthogonalLoop=1;jettySize=auto;html=1;exitX=0.5;exitY=1;exitDx=0;exitDy=0;entryX=0.5;entryY=0;entryDx=0;entryDy=0;" edge="1" parent="1" source="Rd5KwKHS8q_VqUKi5bwp-183" target="Rd5KwKHS8q_VqUKi5bwp-186">
          <mxGeometry relative="1" as="geometry" />
        </mxCell>
        <mxCell id="Rd5KwKHS8q_VqUKi5bwp-183" value="&lt;font style=&quot;font-size: 11px;&quot;&gt;Listing displayed on exterenal Power Pages site&lt;/font&gt;" style="rounded=0;whiteSpace=wrap;html=1;" vertex="1" parent="1">
          <mxGeometry x="110" y="370" width="100" height="50" as="geometry" />
        </mxCell>
        <mxCell id="Rd5KwKHS8q_VqUKi5bwp-188" style="edgeStyle=orthogonalEdgeStyle;rounded=0;orthogonalLoop=1;jettySize=auto;html=1;exitX=0.5;exitY=1;exitDx=0;exitDy=0;entryX=0.5;entryY=0;entryDx=0;entryDy=0;" edge="1" parent="1" source="Rd5KwKHS8q_VqUKi5bwp-186" target="Rd5KwKHS8q_VqUKi5bwp-62">
          <mxGeometry relative="1" as="geometry" />
        </mxCell>
        <mxCell id="Rd5KwKHS8q_VqUKi5bwp-192" style="edgeStyle=orthogonalEdgeStyle;rounded=0;orthogonalLoop=1;jettySize=auto;html=1;exitX=1;exitY=0.5;exitDx=0;exitDy=0;entryX=0;entryY=0.25;entryDx=0;entryDy=0;" edge="1" parent="1" source="Rd5KwKHS8q_VqUKi5bwp-186" target="Rd5KwKHS8q_VqUKi5bwp-55">
          <mxGeometry relative="1" as="geometry">
            <Array as="points">
              <mxPoint x="290" y="460" />
              <mxPoint x="290" y="133" />
            </Array>
          </mxGeometry>
        </mxCell>
        <mxCell id="Rd5KwKHS8q_VqUKi5bwp-186" value="" style="rhombus;whiteSpace=wrap;html=1;fillColor=#000000;" vertex="1" parent="1">
          <mxGeometry x="150" y="450" width="20" height="20" as="geometry" />
        </mxCell>
        <mxCell id="Rd5KwKHS8q_VqUKi5bwp-191" value="No Changes" style="text;html=1;strokeColor=none;fillColor=none;align=center;verticalAlign=middle;whiteSpace=wrap;rounded=0;" vertex="1" parent="1">
          <mxGeometry x="180" y="430" width="75" height="30" as="geometry" />
        </mxCell>
      </root>
    </mxGraphModel>
  </diagram>
</mxfile>
